<?xml version="1.0" standalone="no"?>
<!DOCTYPE svg PUBLIC "-//W3C//DTD SVG 1.1//EN" "http://www.w3.org/Graphics/SVG/1.1/DTD/svg11.dtd">
<svg xmlns="http://www.w3.org/2000/svg" width="300" height="450" viewBox="0 0 300 450" fill="none">
<path d="M150 0C67.1571 0 0 68.9564 0 154.018C0 154.346 0.0101681 154.672 0.0121354 155L0 349.97C0 362.026 9.51869 371.799 21.2604 371.799C33.0021 371.799 42.5208 362.026 42.5208 349.97V293.737L42.5235 291.985L42.6044 292.042C43.4501 280.628 52.7173 271.63 64.0504 271.63C75.7312 271.63 85.2168 281.187 85.5486 293.098L85.58 293.114V428.308C85.58 440.288 95.0384 450 106.706 450C118.374 450 127.832 440.288 127.832 428.308H128.185L127.785 330.557V327.734L128.027 327.73C129.382 316.859 138.406 308.451 149.361 308.451C160.079 308.451 168.942 316.501 170.591 327.028L170.891 327.023V330.557V349.244C170.891 361.682 180.711 371.764 192.824 371.764C204.937 371.764 214.757 361.681 214.757 349.244L214.891 308.036L214.896 305.756H215.008C216.118 294.733 225.19 286.137 236.219 286.137C247.248 286.137 256.32 294.733 257.431 305.756H257.547V308.036V373.699C257.547 385.736 267.05 395.494 278.773 395.494C290.496 395.494 300 385.736 300 373.699V154.018C300 68.9561 232.843 0 150 0ZM64.0839 201.27C52.4907 201.27 43.0927 191.62 43.0927 179.717C43.0927 167.813 52.4907 158.163 64.0839 158.163C75.6771 158.163 85.0751 167.813 85.0751 179.717C85.0751 191.62 75.6771 201.27 64.0839 201.27ZM235.008 201.029C223.415 201.029 214.017 191.379 214.017 179.475C214.017 167.571 223.415 157.921 235.008 157.921C246.601 157.921 255.999 167.571 255.999 179.475C255.999 191.379 246.601 201.029 235.008 201.029Z" fill="#3876BF"/>
</svg>